<mxfile host="app.diagrams.net" agent="Mozilla/5.0 (Macintosh; Intel Mac OS X 10_15_7) AppleWebKit/537.36 (KHTML, like Gecko) Chrome/130.0.0.0 Safari/537.36" version="24.8.4">
  <diagram name="Page-1" id="PQCtOgOZkCl52Rzwc-RE">
    <mxGraphModel dx="1294" dy="830" grid="1" gridSize="10" guides="1" tooltips="1" connect="1" arrows="1" fold="1" page="1" pageScale="1" pageWidth="850" pageHeight="1100" math="0" shadow="0">
      <root>
        <mxCell id="0" />
        <mxCell id="1" parent="0" />
        <mxCell id="T8-hRBu4U-9MMjeLa-wW-7" value="" style="edgeStyle=orthogonalEdgeStyle;rounded=0;orthogonalLoop=1;jettySize=auto;html=1;" edge="1" parent="1" source="T8-hRBu4U-9MMjeLa-wW-1" target="T8-hRBu4U-9MMjeLa-wW-6">
          <mxGeometry relative="1" as="geometry" />
        </mxCell>
        <mxCell id="T8-hRBu4U-9MMjeLa-wW-1" value="start" style="ellipse;whiteSpace=wrap;html=1;" vertex="1" parent="1">
          <mxGeometry x="625" y="260" width="120" height="80" as="geometry" />
        </mxCell>
        <mxCell id="T8-hRBu4U-9MMjeLa-wW-9" value="" style="edgeStyle=orthogonalEdgeStyle;rounded=0;orthogonalLoop=1;jettySize=auto;html=1;" edge="1" parent="1" source="T8-hRBu4U-9MMjeLa-wW-6" target="T8-hRBu4U-9MMjeLa-wW-8">
          <mxGeometry relative="1" as="geometry" />
        </mxCell>
        <mxCell id="T8-hRBu4U-9MMjeLa-wW-6" value="เข้าเว็บไซต์" style="rounded=0;whiteSpace=wrap;html=1;" vertex="1" parent="1">
          <mxGeometry x="625" y="410" width="120" height="60" as="geometry" />
        </mxCell>
        <mxCell id="T8-hRBu4U-9MMjeLa-wW-11" value="" style="edgeStyle=orthogonalEdgeStyle;rounded=0;orthogonalLoop=1;jettySize=auto;html=1;" edge="1" parent="1" source="T8-hRBu4U-9MMjeLa-wW-8" target="T8-hRBu4U-9MMjeLa-wW-10">
          <mxGeometry relative="1" as="geometry" />
        </mxCell>
        <mxCell id="T8-hRBu4U-9MMjeLa-wW-8" value="หา code ผ่าน" style="rounded=0;whiteSpace=wrap;html=1;" vertex="1" parent="1">
          <mxGeometry x="625" y="550" width="120" height="60" as="geometry" />
        </mxCell>
        <mxCell id="T8-hRBu4U-9MMjeLa-wW-19" value="" style="edgeStyle=orthogonalEdgeStyle;rounded=0;orthogonalLoop=1;jettySize=auto;html=1;" edge="1" parent="1" source="T8-hRBu4U-9MMjeLa-wW-10" target="T8-hRBu4U-9MMjeLa-wW-18">
          <mxGeometry relative="1" as="geometry" />
        </mxCell>
        <mxCell id="T8-hRBu4U-9MMjeLa-wW-10" value="กรอก code ผ่าน" style="rounded=0;whiteSpace=wrap;html=1;" vertex="1" parent="1">
          <mxGeometry x="625" y="690" width="120" height="60" as="geometry" />
        </mxCell>
        <mxCell id="T8-hRBu4U-9MMjeLa-wW-15" value="" style="edgeStyle=orthogonalEdgeStyle;rounded=0;orthogonalLoop=1;jettySize=auto;html=1;" edge="1" parent="1" source="T8-hRBu4U-9MMjeLa-wW-12" target="T8-hRBu4U-9MMjeLa-wW-14">
          <mxGeometry relative="1" as="geometry" />
        </mxCell>
        <mxCell id="T8-hRBu4U-9MMjeLa-wW-12" value="redirect to&amp;nbsp;promotion" style="rounded=0;whiteSpace=wrap;html=1;" vertex="1" parent="1">
          <mxGeometry x="575" y="1330" width="220" height="60" as="geometry" />
        </mxCell>
        <mxCell id="T8-hRBu4U-9MMjeLa-wW-17" value="" style="edgeStyle=orthogonalEdgeStyle;rounded=0;orthogonalLoop=1;jettySize=auto;html=1;" edge="1" parent="1" source="T8-hRBu4U-9MMjeLa-wW-14" target="T8-hRBu4U-9MMjeLa-wW-16">
          <mxGeometry relative="1" as="geometry" />
        </mxCell>
        <mxCell id="T8-hRBu4U-9MMjeLa-wW-14" value="หารหัสผ่าน" style="rounded=0;whiteSpace=wrap;html=1;" vertex="1" parent="1">
          <mxGeometry x="625" y="1440" width="120" height="60" as="geometry" />
        </mxCell>
        <mxCell id="T8-hRBu4U-9MMjeLa-wW-72" value="" style="edgeStyle=orthogonalEdgeStyle;rounded=0;orthogonalLoop=1;jettySize=auto;html=1;" edge="1" parent="1" source="T8-hRBu4U-9MMjeLa-wW-16" target="T8-hRBu4U-9MMjeLa-wW-56">
          <mxGeometry relative="1" as="geometry" />
        </mxCell>
        <mxCell id="T8-hRBu4U-9MMjeLa-wW-16" value="กรอกรหัสผ่าน" style="rounded=0;whiteSpace=wrap;html=1;" vertex="1" parent="1">
          <mxGeometry x="625" y="1550" width="120" height="60" as="geometry" />
        </mxCell>
        <mxCell id="T8-hRBu4U-9MMjeLa-wW-25" value="" style="edgeStyle=orthogonalEdgeStyle;rounded=0;orthogonalLoop=1;jettySize=auto;html=1;" edge="1" parent="1" source="T8-hRBu4U-9MMjeLa-wW-18" target="T8-hRBu4U-9MMjeLa-wW-24">
          <mxGeometry relative="1" as="geometry" />
        </mxCell>
        <mxCell id="T8-hRBu4U-9MMjeLa-wW-52" style="edgeStyle=orthogonalEdgeStyle;rounded=0;orthogonalLoop=1;jettySize=auto;html=1;exitX=0;exitY=0.5;exitDx=0;exitDy=0;" edge="1" parent="1" source="T8-hRBu4U-9MMjeLa-wW-18" target="T8-hRBu4U-9MMjeLa-wW-12">
          <mxGeometry relative="1" as="geometry">
            <Array as="points">
              <mxPoint x="380" y="865" />
              <mxPoint x="380" y="1280" />
              <mxPoint x="685" y="1280" />
            </Array>
          </mxGeometry>
        </mxCell>
        <mxCell id="T8-hRBu4U-9MMjeLa-wW-18" value="!code" style="rhombus;whiteSpace=wrap;html=1;rounded=0;" vertex="1" parent="1">
          <mxGeometry x="604" y="810" width="163" height="110" as="geometry" />
        </mxCell>
        <mxCell id="T8-hRBu4U-9MMjeLa-wW-49" value="" style="edgeStyle=orthogonalEdgeStyle;rounded=0;orthogonalLoop=1;jettySize=auto;html=1;" edge="1" parent="1" source="T8-hRBu4U-9MMjeLa-wW-24" target="T8-hRBu4U-9MMjeLa-wW-26">
          <mxGeometry relative="1" as="geometry" />
        </mxCell>
        <mxCell id="T8-hRBu4U-9MMjeLa-wW-24" value="Code not found" style="shape=parallelogram;perimeter=parallelogramPerimeter;whiteSpace=wrap;html=1;fixedSize=1;rounded=0;" vertex="1" parent="1">
          <mxGeometry x="820" y="970" width="210" height="60" as="geometry" />
        </mxCell>
        <mxCell id="T8-hRBu4U-9MMjeLa-wW-29" value="" style="edgeStyle=orthogonalEdgeStyle;rounded=0;orthogonalLoop=1;jettySize=auto;html=1;" edge="1" parent="1" source="T8-hRBu4U-9MMjeLa-wW-26" target="T8-hRBu4U-9MMjeLa-wW-28">
          <mxGeometry relative="1" as="geometry" />
        </mxCell>
        <mxCell id="T8-hRBu4U-9MMjeLa-wW-51" style="edgeStyle=orthogonalEdgeStyle;rounded=0;orthogonalLoop=1;jettySize=auto;html=1;exitX=0;exitY=0.5;exitDx=0;exitDy=0;entryX=0.5;entryY=0;entryDx=0;entryDy=0;" edge="1" parent="1" source="T8-hRBu4U-9MMjeLa-wW-26" target="T8-hRBu4U-9MMjeLa-wW-12">
          <mxGeometry relative="1" as="geometry" />
        </mxCell>
        <mxCell id="T8-hRBu4U-9MMjeLa-wW-26" value="code.isActive === true" style="rhombus;whiteSpace=wrap;html=1;rounded=0;" vertex="1" parent="1">
          <mxGeometry x="820" y="1130" width="210" height="120" as="geometry" />
        </mxCell>
        <mxCell id="T8-hRBu4U-9MMjeLa-wW-28" value="Code ไม่สามารถใช้งานได้" style="shape=parallelogram;perimeter=parallelogramPerimeter;whiteSpace=wrap;html=1;fixedSize=1;rounded=0;" vertex="1" parent="1">
          <mxGeometry x="1043" y="1280" width="184.5" height="60" as="geometry" />
        </mxCell>
        <mxCell id="T8-hRBu4U-9MMjeLa-wW-34" value="stop" style="ellipse;whiteSpace=wrap;html=1;" vertex="1" parent="1">
          <mxGeometry x="625" y="2430" width="120" height="80" as="geometry" />
        </mxCell>
        <mxCell id="T8-hRBu4U-9MMjeLa-wW-38" value="false" style="text;html=1;align=center;verticalAlign=middle;whiteSpace=wrap;rounded=0;" vertex="1" parent="1">
          <mxGeometry x="480" y="830" width="60" height="30" as="geometry" />
        </mxCell>
        <mxCell id="T8-hRBu4U-9MMjeLa-wW-39" value="true" style="text;html=1;align=center;verticalAlign=middle;whiteSpace=wrap;rounded=0;" vertex="1" parent="1">
          <mxGeometry x="870" y="830" width="60" height="30" as="geometry" />
        </mxCell>
        <mxCell id="T8-hRBu4U-9MMjeLa-wW-40" value="true" style="text;html=1;align=center;verticalAlign=middle;whiteSpace=wrap;rounded=0;" vertex="1" parent="1">
          <mxGeometry x="1080" y="1150" width="60" height="30" as="geometry" />
        </mxCell>
        <mxCell id="T8-hRBu4U-9MMjeLa-wW-41" value="false" style="text;html=1;align=center;verticalAlign=middle;whiteSpace=wrap;rounded=0;" vertex="1" parent="1">
          <mxGeometry x="720" y="1150" width="60" height="30" as="geometry" />
        </mxCell>
        <mxCell id="T8-hRBu4U-9MMjeLa-wW-54" value="" style="edgeStyle=orthogonalEdgeStyle;rounded=0;orthogonalLoop=1;jettySize=auto;html=1;" edge="1" parent="1" source="T8-hRBu4U-9MMjeLa-wW-56" target="T8-hRBu4U-9MMjeLa-wW-58">
          <mxGeometry relative="1" as="geometry" />
        </mxCell>
        <mxCell id="T8-hRBu4U-9MMjeLa-wW-70" value="" style="edgeStyle=orthogonalEdgeStyle;rounded=0;orthogonalLoop=1;jettySize=auto;html=1;" edge="1" parent="1" source="T8-hRBu4U-9MMjeLa-wW-56" target="T8-hRBu4U-9MMjeLa-wW-69">
          <mxGeometry relative="1" as="geometry">
            <Array as="points">
              <mxPoint x="410" y="1735" />
              <mxPoint x="410" y="2140" />
              <mxPoint x="685" y="2140" />
            </Array>
          </mxGeometry>
        </mxCell>
        <mxCell id="T8-hRBu4U-9MMjeLa-wW-56" value="!code" style="rhombus;whiteSpace=wrap;html=1;rounded=0;" vertex="1" parent="1">
          <mxGeometry x="604" y="1680" width="163" height="110" as="geometry" />
        </mxCell>
        <mxCell id="T8-hRBu4U-9MMjeLa-wW-57" value="" style="edgeStyle=orthogonalEdgeStyle;rounded=0;orthogonalLoop=1;jettySize=auto;html=1;" edge="1" parent="1" source="T8-hRBu4U-9MMjeLa-wW-58" target="T8-hRBu4U-9MMjeLa-wW-61">
          <mxGeometry relative="1" as="geometry" />
        </mxCell>
        <mxCell id="T8-hRBu4U-9MMjeLa-wW-58" value="Code not found" style="shape=parallelogram;perimeter=parallelogramPerimeter;whiteSpace=wrap;html=1;fixedSize=1;rounded=0;" vertex="1" parent="1">
          <mxGeometry x="820" y="1840" width="210" height="60" as="geometry" />
        </mxCell>
        <mxCell id="T8-hRBu4U-9MMjeLa-wW-59" value="" style="edgeStyle=orthogonalEdgeStyle;rounded=0;orthogonalLoop=1;jettySize=auto;html=1;" edge="1" parent="1" source="T8-hRBu4U-9MMjeLa-wW-61" target="T8-hRBu4U-9MMjeLa-wW-62">
          <mxGeometry relative="1" as="geometry" />
        </mxCell>
        <mxCell id="T8-hRBu4U-9MMjeLa-wW-71" style="edgeStyle=orthogonalEdgeStyle;rounded=0;orthogonalLoop=1;jettySize=auto;html=1;entryX=0.5;entryY=0;entryDx=0;entryDy=0;" edge="1" parent="1" source="T8-hRBu4U-9MMjeLa-wW-61" target="T8-hRBu4U-9MMjeLa-wW-69">
          <mxGeometry relative="1" as="geometry" />
        </mxCell>
        <mxCell id="T8-hRBu4U-9MMjeLa-wW-61" value="code.isActive === true" style="rhombus;whiteSpace=wrap;html=1;rounded=0;" vertex="1" parent="1">
          <mxGeometry x="820" y="2000" width="210" height="120" as="geometry" />
        </mxCell>
        <mxCell id="T8-hRBu4U-9MMjeLa-wW-62" value="Code ไม่สามารถใช้งานได้" style="shape=parallelogram;perimeter=parallelogramPerimeter;whiteSpace=wrap;html=1;fixedSize=1;rounded=0;" vertex="1" parent="1">
          <mxGeometry x="1043" y="2150" width="184.5" height="60" as="geometry" />
        </mxCell>
        <mxCell id="T8-hRBu4U-9MMjeLa-wW-63" value="false" style="text;html=1;align=center;verticalAlign=middle;whiteSpace=wrap;rounded=0;" vertex="1" parent="1">
          <mxGeometry x="420" y="1700" width="60" height="30" as="geometry" />
        </mxCell>
        <mxCell id="T8-hRBu4U-9MMjeLa-wW-64" value="true" style="text;html=1;align=center;verticalAlign=middle;whiteSpace=wrap;rounded=0;" vertex="1" parent="1">
          <mxGeometry x="870" y="1700" width="60" height="30" as="geometry" />
        </mxCell>
        <mxCell id="T8-hRBu4U-9MMjeLa-wW-65" value="true" style="text;html=1;align=center;verticalAlign=middle;whiteSpace=wrap;rounded=0;" vertex="1" parent="1">
          <mxGeometry x="1080" y="2020" width="60" height="30" as="geometry" />
        </mxCell>
        <mxCell id="T8-hRBu4U-9MMjeLa-wW-66" value="false" style="text;html=1;align=center;verticalAlign=middle;whiteSpace=wrap;rounded=0;" vertex="1" parent="1">
          <mxGeometry x="720" y="2020" width="60" height="30" as="geometry" />
        </mxCell>
        <mxCell id="T8-hRBu4U-9MMjeLa-wW-73" style="edgeStyle=orthogonalEdgeStyle;rounded=0;orthogonalLoop=1;jettySize=auto;html=1;entryX=0.5;entryY=0;entryDx=0;entryDy=0;" edge="1" parent="1" source="T8-hRBu4U-9MMjeLa-wW-69" target="T8-hRBu4U-9MMjeLa-wW-34">
          <mxGeometry relative="1" as="geometry" />
        </mxCell>
        <mxCell id="T8-hRBu4U-9MMjeLa-wW-69" value="redirect to Google" style="whiteSpace=wrap;html=1;rounded=0;" vertex="1" parent="1">
          <mxGeometry x="578" y="2250" width="215" height="60" as="geometry" />
        </mxCell>
      </root>
    </mxGraphModel>
  </diagram>
</mxfile>
